# xmcd
#
# Track frame offsets:
#	150
#	14200
#	27121
#	40601
#	53987
#	69532
#	78316
#	93193
#	106669
#	119128
#
# Disc length: 1752 seconds
#
# Revision: 0
# Processed by: cddbd v1.4PL0 Copyright (c) Steve Scherf et al.
# Submitted via: dBpowerAMP V4.0
#
DISCID=7c06d60a
DTITLE=Ty England - Two Ways to Fall
DYEAR=1996
DGENRE=Country
TTITLE0=I'll Take Today
TTITLE1=Never Say Never
TTITLE2=The Last Dance
TTITLE3=Kick Back
TTITLE4=Irresistible You
TTITLE5=Backslider's Prayer
TTITLE6=All of The Above
TTITLE7=Sure
TTITLE8=It Starts With 'l'
TTITLE9=Two Ways to Fall
EXTD=
EXTT0=
EXTT1=
EXTT2=
EXTT3=
EXTT4=
EXTT5=
EXTT6=
EXTT7=
EXTT8=
EXTT9=
PLAYORDER=
